<?xml version="1.0" encoding="UTF-8"?>
<svg width="917px" height="363px" viewBox="0 0 917 363" version="1.1" xmlns="http://www.w3.org/2000/svg" xmlns:xlink="http://www.w3.org/1999/xlink">
    <title>Group 4</title>
    <g id="Page-1" stroke="none" stroke-width="1" fill="none" fill-rule="evenodd">
        <g id="Group-4" transform="translate(1.000000, 1.000000)">
            <g id="Group" transform="translate(202.000000, 223.000000)">
                <rect id="Rectangle" stroke="#979797" stroke-width="2" fill="#FFFFFF" x="0" y="0" width="84" height="48"></rect>
                <text id="git" font-family="ArialMT, Arial" font-size="24" font-weight="normal" fill="#000000">
                    <tspan x="29.3261719" y="22">git</tspan>
                </text>
            </g>
            <g id="Group" transform="translate(174.000000, 113.000000)">
                <rect id="Rectangle" stroke="#979797" stroke-width="2" fill="#E2E2E2" x="0" y="0" width="139" height="48"></rect>
                <text id="Dashboard" font-family="ArialMT, Arial" font-size="24" font-weight="normal" fill="#000000">
                    <tspan x="10.7949219" y="22">Dashboard</tspan>
                </text>
            </g>
            <g id="Group" transform="translate(259.000000, 15.000000)">
                <rect id="Rectangle" stroke="#979797" stroke-width="2" fill="#E2E2E2" x="0" y="0" width="139" height="48"></rect>
                <text id="DeGit-CLI" font-family="ArialMT, Arial" font-size="24" font-weight="normal" fill="#000000">
                    <tspan x="16.8183594" y="22">DeGit CLI</tspan>
                </text>
            </g>
            <g id="Group" transform="translate(569.000000, 21.000000)">
                <rect id="Rectangle" stroke="#979797" stroke-width="2" fill="#E2E2E2" x="0" y="0" width="139" height="48"></rect>
                <text id="DeGit-CLI" font-family="ArialMT, Arial" font-size="24" font-weight="normal" fill="#000000">
                    <tspan x="16.8183594" y="22">DeGit CLI</tspan>
                </text>
            </g>
            <g id="Group" transform="translate(371.000000, 180.000000)">
                <rect id="Rectangle" stroke="#979797" stroke-width="2" fill="#FFFFFF" x="0" y="0" width="103" height="62"></rect>
                <text id="git+ssh" font-family="ArialMT, Arial" font-size="24" font-weight="normal" fill="#000000">
                    <tspan x="13.1445312" y="22">git+ssh</tspan>
                </text>
            </g>
            <g id="Group" transform="translate(598.000000, 180.000000)">
                <rect id="Rectangle" stroke="#979797" stroke-width="2" fill="#FFFFFF" x="0" y="0" width="103" height="62"></rect>
                <text id="git+ssh" font-family="ArialMT, Arial" font-size="24" font-weight="normal" fill="#000000">
                    <tspan x="13.1445312" y="22">git+ssh</tspan>
                </text>
            </g>
            <g id="Group" transform="translate(384.000000, 279.000000)">
                <rect id="Rectangle" stroke="#979797" stroke-width="2" fill="#E2E2E2" x="0" y="0" width="77" height="48"></rect>
                <text id="Hooks" font-family="ArialMT, Arial" font-size="24" font-weight="normal" fill="#000000">
                    <tspan x="4.48632812" y="22">Hooks</tspan>
                </text>
            </g>
            <path id="Line" d="M599,211 L591.234197,224.590155 L587.906,219.597 L461.5547,303.83205 L460.72265,304.38675 L459.61325,302.72265 L460.4453,302.16795 L586.796,217.933 L583.468395,212.941451 L599,211 Z" fill="#979797" fill-rule="nonzero"></path>
            <path id="Line" d="M826,211 L818.234197,224.590155 L814.906,219.597 L688.5547,303.83205 L687.72265,304.38675 L686.61325,302.72265 L687.4453,302.16795 L813.796,217.933 L810.468395,212.941451 L826,211 Z" fill="#979797" fill-rule="nonzero"></path>
            <path id="Line" d="M245,160 L245,209 L251,209 L244,223 L237,209 L243,209 L243,160 L245,160 Z" fill="#979797" fill-rule="nonzero"></path>
            <path id="Line" d="M245,160 L245,209 L251,209 L244,223 L237,209 L243,209 L243,160 L245,160 Z" fill="#979797" fill-rule="nonzero"></path>
            <path id="Line" d="M424,241 L424,265 L430,265 L423,279 L416,265 L422,265 L422,241 L424,241 Z" fill="#979797" fill-rule="nonzero"></path>
            <g id="Group" transform="translate(611.000000, 278.500000)">
                <rect id="Rectangle" stroke="#979797" stroke-width="2" fill="#E2E2E2" x="0" y="0" width="77" height="48"></rect>
                <text id="Hooks" font-family="ArialMT, Arial" font-size="24" font-weight="normal" fill="#000000">
                    <tspan x="4.48632812" y="22">Hooks</tspan>
                </text>
            </g>
            <path id="Line" d="M651,240.5 L651,264.5 L657,264.5 L650,278.5 L643,264.5 L649,264.5 L649,240.5 L651,240.5 Z" fill="#979797" fill-rule="nonzero"></path>
            <path id="Line" d="M244.369874,33.4358828 L259,39 L245.77063,47.3656308 L245.17,41.396 L80.1000541,57.994982 L79.1050721,58.0950361 L78.9049639,56.1050721 L79.8999459,56.005018 L244.969,39.406 L244.369874,33.4358828 Z" fill="#979797" fill-rule="nonzero"></path>
            <path id="Line" d="M355.401592,209.700133 L371,211 L360.601061,222.698806 L358.372,217.127 L286.371391,245.928477 L285.442914,246.299867 L284.700133,244.442914 L285.628609,244.071523 L357.629,215.27 L355.401592,209.700133 Z" fill="#979797" fill-rule="nonzero"></path>
            <path id="Line" d="M68.5680602,81.6533642 L69.457348,82.1107122 L162.007,129.708 L164.751407,124.372113 L174,137 L158.348535,136.822142 L161.092,131.486 L68.542652,83.8892878 L67.6533642,83.4319398 L68.5680602,81.6533642 Z" fill="#979797" fill-rule="nonzero"></path>
            <path id="Line" d="M69.0052966,111.585796 L69.7097501,112.295546 L192.847,236.358 L197.105902,232.132323 L202,247 L187.1694,241.994672 L191.427,237.768 L68.2902499,113.704454 L67.5857964,112.994703 L69.0052966,111.585796 Z" fill="#979797" fill-rule="nonzero"></path>
            <path id="Line" d="M306.150661,61.5938345 L307.406165,63.1506606 L306.627752,63.778413 L255.525,104.99 L259.29205,109.660357 L244,113 L250.503515,98.7625744 L254.27,103.432 L305.372248,62.221587 L306.150661,61.5938345 Z" fill="#979797" fill-rule="nonzero"></path>
            <path id="Line" d="M650,70 L650,169 L656,169 L649,183 L642,169 L648,169 L648,70 L650,70 Z" fill="#979797" fill-rule="nonzero"></path>
            <path id="Line" d="M723.471767,42.6284152 L721.632,48.339 L826.306531,82.0481394 L827.258392,82.3546708 L826.645329,84.2583919 L825.693469,83.9518606 L721.019,50.243 L719.180328,55.954463 L708,45 L723.471767,42.6284152 Z" fill="#979797" fill-rule="nonzero"></path>
            <path id="Line" d="M408.706129,61.6166563 L410.383344,62.7061291 L409.838607,63.5447364 L341.465,168.804 L346.496561,172.072652 L333,180 L334.756058,164.446343 L339.788,167.714 L408.161393,62.4552636 L408.706129,61.6166563 Z" fill="#979797" fill-rule="nonzero"></path>
            <g id="Group-3" transform="translate(0.000000, 18.000000)">
                <g id="Group-2" stroke="#979797" stroke-width="2">
                    <circle id="Oval" cx="30.125" cy="16.5" r="16.5"></circle>
                    <line x1="30.875" y1="33.2830189" x2="31.125" y2="63" id="Line-2" stroke-linecap="square"></line>
                    <line x1="61.2052752" y1="39.375" x2="0.904816514" y2="39.25" id="Line-2" stroke-linecap="square"></line>
                    <line x1="62.4107143" y1="85.928125" x2="30.9107143" y2="63.2875" id="Line-2" stroke-linecap="square"></line>
                    <line x1="31.4174107" y1="85.928125" x2="0.901785714" y2="63.2875" id="Line-2" stroke-linecap="square" transform="translate(16.125000, 74.500000) scale(-1, 1) translate(-16.125000, -74.500000) "></line>
                </g>
                <text id="User" font-family="ArialMT, Arial" font-size="16" font-weight="normal" fill="#000000">
                    <tspan x="14.609375" y="100">User</tspan>
                </text>
            </g>
            <g id="Group-3" transform="translate(817.000000, 25.000000)">
                <g id="Group-2" transform="translate(18.000000, 0.000000)" stroke="#979797" stroke-width="2">
                    <circle id="Oval" cx="30.125" cy="16.5" r="16.5"></circle>
                    <line x1="30.875" y1="33.2830189" x2="31.125" y2="63" id="Line-2" stroke-linecap="square"></line>
                    <line x1="61.2052752" y1="39.375" x2="0.904816514" y2="39.25" id="Line-2" stroke-linecap="square"></line>
                    <line x1="62.4107143" y1="85.928125" x2="30.9107143" y2="63.2875" id="Line-2" stroke-linecap="square"></line>
                    <line x1="31.4174107" y1="85.928125" x2="0.901785714" y2="63.2875" id="Line-2" stroke-linecap="square" transform="translate(16.125000, 74.500000) scale(-1, 1) translate(-16.125000, -74.500000) "></line>
                </g>
                <text id="Server-Hoster" font-family="ArialMT, Arial" font-size="16" font-weight="normal" fill="#000000">
                    <tspan x="0.15234375" y="100">Server Hoster</tspan>
                </text>
            </g>
            <text id="push/pull" font-family="ArialMT, Arial" font-size="16" font-weight="normal" fill="#000000">
                <tspan x="71.4765625" y="197">push/pull</tspan>
            </text>
            <text id="start/stop" font-family="ArialMT, Arial" font-size="16" font-weight="normal" fill="#000000">
                <tspan x="88.0976562" y="44">start/stop</tspan>
            </text>
            <text id="ssh" font-family="ArialMT, Arial" font-size="16" font-weight="normal" fill="#000000">
                <tspan x="308.050781" y="220">ssh</tspan>
            </text>
            <text id="ssh" font-family="ArialMT, Arial" font-size="16" font-weight="normal" fill="#000000">
                <tspan x="505.050781" y="254">ssh</tspan>
            </text>
            <text id="User’s-laptop" font-family="ArialMT, Arial" font-size="16" font-weight="normal" fill="#000000">
                <tspan x="161.160156" y="358">User’s laptop</tspan>
            </text>
            <text id="Server" font-family="ArialMT, Arial" font-size="16" font-weight="normal" fill="#000000">
                <tspan x="681.4375" y="358">Server</tspan>
            </text>
            <text id="to-other-servers" font-family="ArialMT, Arial" font-size="16" font-weight="normal" fill="#000000">
                <tspan x="790.371094" y="251">to other</tspan>
                <tspan x="791.273438" y="268">servers</tspan>
            </text>
            <text id="posix" fill-rule="nonzero" font-family="ArialMT, Arial" font-size="16" font-weight="normal" fill="#000000">
                <tspan x="248.324219" y="194">posix</tspan>
            </text>
            <text id="posix" fill-rule="nonzero" font-family="ArialMT, Arial" font-size="16" font-weight="normal" fill="#000000">
                <tspan x="379.324219" y="121">posix</tspan>
            </text>
            <text id="posix" fill-rule="nonzero" font-family="ArialMT, Arial" font-size="16" font-weight="normal" fill="#000000">
                <tspan x="237.324219" y="83">posix</tspan>
            </text>
            <text id="http" font-family="ArialMT, Arial" font-size="16" font-weight="normal" fill="#000000">
                <tspan x="122.15625" y="107">http</tspan>
            </text>
            <path d="M549,9 L729,9 L729,344 L549,344 L549,9 Z" id="Rectangle" stroke="#979797" stroke-width="2" stroke-dasharray="10"></path>
            <path d="M161,0 L490,0 L490,344 L161,344 L161,0 Z" id="Rectangle" stroke="#979797" stroke-width="2" stroke-dasharray="10"></path>
        </g>
    </g>
</svg>