<?xml version="1.0" encoding="UTF-8"?>
<svg width="1168px" height="652px" viewBox="0 0 1168 652" version="1.1" xmlns="http://www.w3.org/2000/svg" xmlns:xlink="http://www.w3.org/1999/xlink">
    <title>Group 4</title>
    <g id="Page-1" stroke="none" stroke-width="1" fill="none" fill-rule="evenodd">
        <g id="Group-4" transform="translate(1.000000, 1.000000)">
            <g id="Group" transform="translate(794.000000, 338.000000)">
                <rect id="Rectangle" stroke="#979797" stroke-width="2" fill="#FFFFFF" x="0" y="0" width="84" height="48"></rect>
                <text id="git" font-family="ArialMT, Arial" font-size="24" font-weight="normal" fill="#000000">
                    <tspan x="29.3261719" y="22">git</tspan>
                </text>
            </g>
            <g id="Group" transform="translate(199.000000, 199.000000)">
                <rect id="Rectangle" stroke="#979797" stroke-width="2" fill="#FFFFFF" x="0" y="0" width="84" height="48"></rect>
                <text id="A.M." font-family="ArialMT, Arial" font-size="24" font-weight="normal" fill="#000000">
                    <tspan x="17.3320312" y="22">A.M.</tspan>
                </text>
            </g>
            <g id="Group" transform="translate(0.000000, 295.500000)">
                <rect id="Rectangle" stroke="#979797" stroke-width="2" fill="#FFFFFF" x="0" y="0" width="84" height="48"></rect>
                <text id="LDAP" font-family="ArialMT, Arial" font-size="24" font-weight="normal" fill="#000000">
                    <tspan x="10.6523438" y="22">LDAP</tspan>
                </text>
            </g>
            <g id="Group" transform="translate(666.000000, 224.000000)">
                <rect id="Rectangle" stroke="#979797" stroke-width="2" fill="#FFFFFF" x="0" y="0" width="139" height="48"></rect>
                <text id="Dashboard" font-family="ArialMT, Arial" font-size="24" font-weight="normal" fill="#000000">
                    <tspan x="10.7949219" y="22">Dashboard</tspan>
                </text>
            </g>
            <g id="Group" transform="translate(666.000000, 224.000000)">
                <rect id="Rectangle" stroke="#979797" stroke-width="2" fill="#FFFFFF" x="0" y="0" width="139" height="48"></rect>
                <text id="Dashboard" font-family="ArialMT, Arial" font-size="24" font-weight="normal" fill="#000000">
                    <tspan x="10.7949219" y="22">Dashboard</tspan>
                </text>
            </g>
            <g id="Group" transform="translate(786.000000, 449.000000)">
                <rect id="Rectangle" stroke="#979797" stroke-width="2" fill="#FFFFFF" x="0" y="0" width="103" height="62"></rect>
                <text id="git+ssh-+hooks" font-family="ArialMT, Arial" font-size="24" font-weight="normal" fill="#000000">
                    <tspan x="13.1445312" y="22">git+ssh</tspan>
                    <tspan x="12.4707031" y="49">+hooks</tspan>
                </text>
            </g>
            <g id="Group" transform="translate(1059.000000, 382.000000)">
                <rect id="Rectangle" stroke="#979797" stroke-width="2" fill="#FFFFFF" x="0" y="0" width="107" height="60"></rect>
                <text id="git+ssh-+hooks" font-family="ArialMT, Arial" font-size="24" font-weight="normal" fill="#000000">
                    <tspan x="15.1445312" y="22">git+ssh</tspan>
                    <tspan x="14.4707031" y="49">+hooks</tspan>
                </text>
            </g>
            <g id="Group" transform="translate(385.000000, 428.000000)">
                <rect id="Rectangle" stroke="#979797" stroke-width="2" fill="#FFFFFF" x="-1.42108547e-14" y="0" width="107" height="71"></rect>
                <text id="git+ssh-+hooks" font-family="ArialMT, Arial" font-size="24" font-weight="normal" fill="#000000">
                    <tspan x="15.1445312" y="22">git+ssh</tspan>
                    <tspan x="14.4707031" y="49">+hooks</tspan>
                </text>
            </g>
            <g id="Group" transform="translate(465.000000, 561.000000)">
                <rect id="Rectangle" stroke="#979797" stroke-width="2" fill="#FFFFFF" x="0" y="0" width="68" height="48"></rect>
                <text id="dfs" font-family="ArialMT, Arial" font-size="24" font-weight="normal" fill="#000000">
                    <tspan x="17.9921875" y="22">dfs</tspan>
                </text>
            </g>
            <g id="Group" transform="translate(371.000000, 561.000000)">
                <rect id="Rectangle" stroke="#979797" stroke-width="2" fill="#FFFFFF" x="0" y="0" width="68" height="48"></rect>
                <text id="dfs" font-family="ArialMT, Arial" font-size="24" font-weight="normal" fill="#000000">
                    <tspan x="17.9921875" y="22">dfs</tspan>
                </text>
            </g>
            <g id="Group" transform="translate(273.000000, 561.000000)">
                <rect id="Rectangle" stroke="#979797" stroke-width="2" fill="#FFFFFF" x="0" y="0" width="68" height="48"></rect>
                <text id="dfs" font-family="ArialMT, Arial" font-size="24" font-weight="normal" fill="#000000">
                    <tspan x="17.9921875" y="22">dfs</tspan>
                </text>
            </g>
            <path id="Line" d="M835.516257,385.484003 L837.515997,385.516257 L837.49987,386.516127 L836.726,434.517 L842.724867,434.614709 L835.5,448.5 L828.726687,434.388932 L834.726,434.485 L835.50013,386.483873 L835.516257,385.484003 Z" fill="#979797" fill-rule="nonzero"></path>
            <path id="Line" d="M1113,443 L1120,457 L1114,457 L1114,475 L1112,475 L1112,457 L1106,457 L1113,443 Z" fill="#979797" fill-rule="nonzero"></path>
            <path id="Line" d="M505.950881,467.902611 L505.992,473.902 L778.993032,472.000024 L779.993007,471.993056 L780.006944,473.993007 L779.006968,473.999976 L506.006,475.902 L506.048439,481.902271 L492,475 L505.950881,467.902611 Z" fill="#979797" fill-rule="nonzero"></path>
            <line x1="1113" y1="475" x2="889" y2="473" id="Line" stroke="#979797" stroke-width="2" stroke-linecap="square"></line>
            <line x1="1059" y1="418" x2="836" y2="418" id="Line" stroke="#979797" stroke-width="2" stroke-linecap="square"></line>
            <path id="Line" d="M944,411 L944,417 L1060,417 L1060,419 L944,419 L944,425 L930,418 L944,411 Z" fill="#979797" fill-rule="nonzero"></path>
            <text id="ssh" font-family="ArialMT, Arial" font-size="16" font-weight="normal" fill="#000000">
                <tspan x="954.050781" y="410">ssh</tspan>
            </text>
            <path id="Line" d="M847,181 L847,324 L853,324 L846,338 L839,324 L845,324 L845,181 L847,181 Z" fill="#979797" fill-rule="nonzero"></path>
            <path id="Line" d="M746.909914,270.588659 L747.660628,271.249286 L812.15,328 L816.114406,323.496215 L822,338 L806.865615,334.006204 L810.829,329.501 L746.339372,272.750714 L745.588659,272.090086 L746.909914,270.588659 Z" fill="#979797" fill-rule="nonzero"></path>
            <path id="Line" d="M822.297201,180.617368 L823.382632,182.297201 L822.542715,182.839917 L769.301,217.242 L772.557841,222.281401 L757,224 L764.959826,210.522568 L768.216,215.562 L821.457285,181.160083 L822.297201,180.617368 Z" fill="#979797" fill-rule="nonzero"></path>
            <path id="Line" d="M187.302457,225.118508 L188.381492,226.802457 L187.539518,227.341974 L96.327,285.788 L99.5642638,290.840575 L84,292.5 L92.0110181,279.052934 L95.248,284.104 L186.460482,225.658026 L187.302457,225.118508 Z" fill="#979797" fill-rule="nonzero"></path>
            <path id="Line" d="M227.752465,253.107618 L229.392382,254.252465 L228.819958,255.072424 L199.834,296.593 L204.753637,300.027552 L191,307.5 L193.274223,292.013622 L198.194,295.448 L227.180042,253.927576 L227.752465,253.107618 Z" fill="#979797" fill-rule="nonzero"></path>
            <path id="Line" d="M439.57938,111.709915 L440.290085,113.57938 L439.355353,113.934732 L331.441,154.959 L333.573721,160.568187 L318,159 L328.598782,147.481935 L330.73,153.09 L438.644647,112.065268 L439.57938,111.709915 Z" fill="#979797" fill-rule="nonzero"></path>
            <g id="Group-2" transform="translate(806.000000, 53.000000)" stroke="#979797" stroke-width="2">
                <circle id="Oval" cx="30.125" cy="16.5" r="16.5"></circle>
                <line x1="30.875" y1="33.2830189" x2="31.125" y2="63" id="Line-2" stroke-linecap="square"></line>
                <line x1="61.2052752" y1="39.375" x2="0.904816514" y2="39.25" id="Line-2" stroke-linecap="square"></line>
                <line x1="62.4107143" y1="85.928125" x2="30.9107143" y2="63.2875" id="Line-2" stroke-linecap="square"></line>
                <line x1="31.4174107" y1="85.928125" x2="0.901785714" y2="63.2875" id="Line-2" stroke-linecap="square" transform="translate(16.125000, 74.500000) scale(-1, 1) translate(-16.125000, -74.500000) "></line>
            </g>
            <g id="Group-2" transform="translate(453.000000, 0.000000)" stroke="#979797" stroke-width="2">
                <circle id="Oval" cx="30.125" cy="16.5" r="16.5"></circle>
                <line x1="30.875" y1="33.2830189" x2="31.125" y2="63" id="Line-2" stroke-linecap="square"></line>
                <line x1="61.2052752" y1="39.375" x2="0.904816514" y2="39.25" id="Line-2" stroke-linecap="square"></line>
                <line x1="62.4107143" y1="85.928125" x2="30.9107143" y2="63.2875" id="Line-2" stroke-linecap="square"></line>
                <line x1="31.4174107" y1="85.928125" x2="0.901785714" y2="63.2875" id="Line-2" stroke-linecap="square" transform="translate(16.125000, 74.500000) scale(-1, 1) translate(-16.125000, -74.500000) "></line>
            </g>
            <text id="cli" font-family="ArialMT, Arial" font-size="16" font-weight="normal" fill="#000000">
                <tspan x="856.945312" y="260">cli</tspan>
            </text>
            <text id="ssh" font-family="ArialMT, Arial" font-size="16" font-weight="normal" fill="#000000">
                <tspan x="803.050781" y="423">ssh</tspan>
            </text>
            <g id="Group" transform="translate(275.000000, 340.000000)">
                <rect id="Rectangle" stroke="#979797" stroke-width="2" fill="#FFFFFF" x="0" y="0" width="84" height="48"></rect>
                <text id="git" font-family="ArialMT, Arial" font-size="24" font-weight="normal" fill="#000000">
                    <tspan x="29.3261719" y="22">git</tspan>
                </text>
            </g>
            <path id="Line" d="M317.413326,387.088445 L318.16244,387.750885 L368.174,431.977 L372.149476,427.482033 L378,442 L362.875312,437.969639 L366.849,433.475 L316.83756,389.249115 L316.088445,388.586674 L317.413326,387.088445 Z" fill="#979797" fill-rule="nonzero"></path>
            <path id="Line" d="M482.182377,127.846097 L484.153903,128.182377 L483.985763,129.16814 L435.339,414.367 L441.254304,415.376298 L432,428 L427.453621,413.022335 L433.367,414.031 L482.014237,128.83186 L482.182377,127.846097 Z" fill="#979797" fill-rule="nonzero"></path>
            <text id="ssh" font-family="ArialMT, Arial" font-size="16" font-weight="normal" fill="#000000">
                <tspan x="321.050781" y="425">ssh</tspan>
            </text>
            <text id="User’s-laptop" font-family="ArialMT, Arial" font-size="16" font-weight="normal" fill="#000000">
                <tspan x="820.160156" y="544">User’s laptop</tspan>
            </text>
            <text id="Enterprise-cloud" font-family="ArialMT, Arial" font-size="16" font-weight="normal" fill="#000000">
                <tspan x="438.191406" y="647">Enterprise cloud</tspan>
            </text>
            <text id="ssh" font-family="ArialMT, Arial" font-size="16" font-weight="normal" fill="#000000">
                <tspan x="426.050781" y="264">ssh</tspan>
            </text>
            <text id="ssh" font-family="ArialMT, Arial" font-size="16" font-weight="normal" fill="#000000">
                <tspan x="677.050781" y="463">ssh</tspan>
            </text>
            <text id="posix" font-family="ArialMT, Arial" font-size="16" font-weight="normal" fill="#000000">
                <tspan x="740.824219" y="311">posix</tspan>
            </text>
            <g id="Group" transform="translate(246.000000, 159.000000)">
                <rect id="Rectangle" stroke="#979797" stroke-width="2" fill="#FFFFFF" x="0" y="0" width="139" height="48"></rect>
                <text id="Dashboard" font-family="ArialMT, Arial" font-size="24" font-weight="normal" fill="#000000">
                    <tspan x="10.7949219" y="22">Dashboard</tspan>
                </text>
            </g>
            <path id="Line" d="M322,206 L322,325 L328,325 L321,339 L314,325 L320,325 L320,206 L322,206 Z" fill="#979797" fill-rule="nonzero"></path>
            <path id="Line" d="M439.11034,497.590098 L439.760121,498.350219 L483.662,549.708 L488.223913,545.809833 L492,561 L477.582215,554.906769 L482.142,551.007 L438.239879,499.649781 L437.590098,498.88966 L439.11034,497.590098 Z" fill="#979797" fill-rule="nonzero"></path>
            <path id="Line" d="M438.60402,497.642355 L440.357645,498.60402 L439.876812,499.480833 L412.608,549.205 L417.869343,552.090455 L405,561 L405.59397,545.358798 L410.854,548.243 L438.123188,498.519167 L438.60402,497.642355 Z" fill="#979797" fill-rule="nonzero"></path>
            <path id="Line" d="M439.479993,497.669734 L440.330266,499.479993 L439.425136,499.905129 L320.096,555.953 L322.647765,561.383994 L307,561 L316.695854,548.712185 L319.246,554.143 L438.574864,498.094871 L439.479993,497.669734 Z" fill="#979797" fill-rule="nonzero"></path>
            <text id="posix" font-family="ArialMT, Arial" font-size="16" font-weight="normal" fill="#000000">
                <tspan x="275.324219" y="273">posix</tspan>
            </text>
            <text id="http" font-family="ArialMT, Arial" font-size="16" font-weight="normal" fill="#000000">
                <tspan x="761.65625" y="196">http</tspan>
            </text>
            <text id="https" font-family="ArialMT, Arial" font-size="16" font-weight="normal" fill="#000000">
                <tspan x="341.15625" y="128">https</tspan>
            </text>
            <text id="Enterprise-User" font-family="ArialMT, Arial" font-size="16" font-weight="normal" fill="#000000">
                <tspan x="446.039062" y="103">Enterprise</tspan>
                <tspan x="465.609375" y="120">User</tspan>
            </text>
            <text id="Open-Source-User" font-family="ArialMT, Arial" font-size="16" font-weight="normal" fill="#000000">
                <tspan x="790.359375" y="153">Open Source</tspan>
                <tspan x="820.609375" y="170">User</tspan>
            </text>
            <g id="Group-3" transform="translate(196.000000, 353.000000) scale(1, -1) translate(-196.000000, -353.000000) translate(151.000000, 319.500000)" fill="#FFFFFF" stroke="#979797" stroke-width="2">
                <ellipse id="Oval" transform="translate(44.500000, 13.500000) scale(1, -1) translate(-44.500000, -13.500000) " cx="44.5" cy="13.5" rx="44.5" ry="13.5"></ellipse>
                <ellipse id="Oval" transform="translate(44.500000, 26.500000) scale(1, -1) translate(-44.500000, -26.500000) " cx="44.5" cy="26.5" rx="44.5" ry="13.5"></ellipse>
                <ellipse id="Oval" transform="translate(45.500000, 40.500000) scale(1, -1) translate(-45.500000, -40.500000) " cx="45.5" cy="40.5" rx="44.5" ry="13.5"></ellipse>
                <ellipse id="Oval" transform="translate(45.500000, 53.500000) scale(1, -1) translate(-45.500000, -53.500000) " cx="45.5" cy="53.5" rx="44.5" ry="13.5"></ellipse>
            </g>
            <path d="M634,196 L914,196 L914,530 L634,530 L634,196 Z" id="Rectangle" stroke="#979797" stroke-width="2" stroke-dasharray="10"></path>
            <path d="M135,142 L554,142 L554,633 L135,633 L135,142 Z" id="Rectangle" stroke="#979797" stroke-width="2" stroke-dasharray="10"></path>
        </g>
    </g>
</svg>