<?xml version="1.0" encoding="UTF-8"?>
<svg width="679px" height="825px" viewBox="0 0 679 825" version="1.1" xmlns="http://www.w3.org/2000/svg" xmlns:xlink="http://www.w3.org/1999/xlink">
    <title>Group 5</title>
    <g id="Page-1" stroke="none" stroke-width="1" fill="none" fill-rule="evenodd">
        <g id="Group-5" transform="translate(1.000000, 1.000000)">
            <g id="Group" transform="translate(159.000000, 410.000000)">
                <rect id="Rectangle" stroke="#979797" stroke-width="2" fill="#FFFFFF" x="0" y="0" width="62" height="42"></rect>
                <text id="AM" font-family="ArialMT, Arial" font-size="24" font-weight="normal" fill="#000000">
                    <tspan x="13" y="22">AM</tspan>
                </text>
            </g>
            <g id="Group" transform="translate(0.000000, 463.000000)">
                <rect id="Rectangle" stroke="#979797" stroke-width="2" fill="#FFFFFF" x="0" y="0" width="84" height="48"></rect>
                <text id="LDAP" font-family="ArialMT, Arial" font-size="24" font-weight="normal" fill="#000000">
                    <tspan x="10.6523438" y="22">LDAP</tspan>
                </text>
            </g>
            <g id="Group" transform="translate(344.000000, 536.000000)">
                <rect id="Rectangle" stroke="#979797" stroke-width="2" fill="#FFFFFF" x="0" y="0" width="147" height="54"></rect>
                <text id="HAProxy(s)" font-family="ArialMT, Arial" font-size="24" font-weight="normal" fill="#000000">
                    <tspan x="12.1640625" y="22">HAProxy(s)</tspan>
                </text>
            </g>
            <g id="Group" transform="translate(291.000000, 750.000000)">
                <rect id="Rectangle" stroke="#979797" stroke-width="2" fill="#FFFFFF" x="0" y="0" width="129" height="42"></rect>
                <text id="NFS" font-family="ArialMT, Arial" font-size="24" font-weight="normal" fill="#000000">
                    <tspan x="40.5" y="22">NFS</tspan>
                </text>
            </g>
            <g id="Group" transform="translate(175.000000, 652.500000)">
                <rect id="Rectangle" stroke="#979797" stroke-width="2" fill="#FFFFFF" x="0" y="0" width="90" height="48"></rect>
                <text id="git+ssh" font-family="ArialMT, Arial" font-size="24" font-weight="normal" fill="#000000">
                    <tspan x="6.64453125" y="22">git+ssh</tspan>
                </text>
            </g>
            <g id="Group" transform="translate(431.000000, 652.500000)">
                <rect id="Rectangle" stroke="#979797" stroke-width="2" fill="#FFFFFF" x="0" y="0" width="90" height="48"></rect>
                <text id="git+ssh" font-family="ArialMT, Arial" font-size="24" font-weight="normal" fill="#000000">
                    <tspan x="6.64453125" y="22">git+ssh</tspan>
                </text>
            </g>
            <g id="Group" transform="translate(287.000000, 652.500000)">
                <rect id="Rectangle" stroke="#979797" stroke-width="2" fill="#FFFFFF" x="0" y="0" width="90" height="48"></rect>
                <text id="git+ssh" font-family="ArialMT, Arial" font-size="24" font-weight="normal" fill="#000000">
                    <tspan x="6.64453125" y="22">git+ssh</tspan>
                </text>
            </g>
            <path id="Line" d="M173.578869,451.834686 L174.290314,453.703869 L173.355722,454.059592 L97.44,482.954 L99.57434,488.562028 L84,487 L94.5942266,475.477745 L96.728,481.085 L172.644278,452.190408 L173.578869,451.834686 Z" fill="#979797" fill-rule="nonzero"></path>
            <path id="Line" d="M190.061058,451.712105 L191.412895,453.186058 L190.675919,453.861976 L114.993,523.273 L119.049098,527.695973 L104,532 L109.586237,517.378305 L113.641,521.799 L189.324081,452.388024 L190.061058,451.712105 Z" fill="#979797" fill-rule="nonzero"></path>
            <path id="Line" d="M272.808579,451.598801 L273.604889,452.20369 L366.456,522.735 L370.085888,517.957384 L377,532 L361.61744,529.10572 L365.246,524.327 L272.395111,453.79631 L271.598801,453.191421 L272.808579,451.598801 Z" fill="#979797" fill-rule="nonzero"></path>
            <path id="Line" d="M438.377222,451.745921 L440.269704,452.392847 L439.946241,453.339088 L417.474,519.075 L423.152165,521.016867 L412,532 L409.904792,516.488388 L415.582,518.429 L438.053759,452.692162 L438.377222,451.745921 Z" fill="#979797" fill-rule="nonzero"></path>
            <path id="Line" d="M625.460507,451.662864 L626.337136,453.460507 L625.438314,453.898822 L476.021,526.762 L478.651705,532.155352 L463,532 L472.515304,519.571847 L475.145,524.965 L624.561686,452.101178 L625.460507,451.662864 Z" fill="#979797" fill-rule="nonzero"></path>
            <path id="Line" d="M380.796548,229.600497 L382.399503,230.796548 L381.801477,231.598025 L293.173,350.377 L297.982695,353.965496 L284,361 L286.762014,345.593142 L291.57,349.181 L380.198523,230.401975 L380.796548,229.600497 Z" fill="#979797" fill-rule="nonzero"></path>
            <path id="Line" d="M432.677199,223.758468 L432.959366,224.717834 L469.008,347.286 L474.76523,345.593719 L472,361 L461.334113,349.544047 L467.09,347.851 L431.040634,225.282166 L430.758468,224.322801 L432.677199,223.758468 Z" fill="#979797" fill-rule="nonzero"></path>
            <path id="Line" d="M451.447214,230.658359 L451.894427,231.552786 L520.633,369.031 L526,366.347524 L526,382 L513.478019,372.608514 L518.844,369.925 L450.105573,232.447214 L449.658359,231.552786 L451.447214,230.658359 Z" fill="#979797" fill-rule="nonzero"></path>
            <g id="Group-4" transform="translate(399.000000, 0.000000)">
                <g id="Group-2" transform="translate(7.000000, 0.000000)" stroke="#979797" stroke-width="2">
                    <circle id="Oval" cx="30.125" cy="16.5" r="16.5"></circle>
                    <line x1="30.875" y1="33.2830189" x2="31.125" y2="63" id="Line-2" stroke-linecap="square"></line>
                    <line x1="61.2052752" y1="39.375" x2="0.904816514" y2="39.25" id="Line-2" stroke-linecap="square"></line>
                    <line x1="62.4107143" y1="85.928125" x2="30.9107143" y2="63.2875" id="Line-2" stroke-linecap="square"></line>
                    <line x1="31.4174107" y1="85.928125" x2="0.901785714" y2="63.2875" id="Line-2" stroke-linecap="square" transform="translate(16.125000, 74.500000) scale(-1, 1) translate(-16.125000, -74.500000) "></line>
                </g>
                <text id="Enterprise-User(s)" font-family="ArialMT, Arial" font-size="16" font-weight="normal" fill="#000000">
                    <tspan x="0.0390625" y="103">Enterprise</tspan>
                    <tspan x="10.28125" y="120">User(s)</tspan>
                </text>
            </g>
            <g id="Group" transform="translate(234.000000, 410.000000)">
                <rect id="Rectangle" stroke="#979797" stroke-width="2" fill="#FFFFFF" x="0" y="0" width="64" height="42"></rect>
                <text id="git" font-family="ArialMT, Arial" font-size="24" font-weight="normal" fill="#000000">
                    <tspan x="19.3261719" y="22">git</tspan>
                </text>
            </g>
            <g id="Group" transform="translate(337.000000, 410.000000)">
                <rect id="Rectangle" stroke="#979797" stroke-width="2" fill="#FFFFFF" x="0" y="0" width="62" height="42"></rect>
                <text id="AM" font-family="ArialMT, Arial" font-size="24" font-weight="normal" fill="#000000">
                    <tspan x="13" y="22">AM</tspan>
                </text>
            </g>
            <g id="Group" transform="translate(412.000000, 410.000000)">
                <rect id="Rectangle" stroke="#979797" stroke-width="2" fill="#FFFFFF" x="0" y="0" width="64" height="42"></rect>
                <text id="git" font-family="ArialMT, Arial" font-size="24" font-weight="normal" fill="#000000">
                    <tspan x="19.3261719" y="22">git</tspan>
                </text>
            </g>
            <g id="Group" transform="translate(526.000000, 410.000000)">
                <rect id="Rectangle" stroke="#979797" stroke-width="2" fill="#FFFFFF" x="0" y="0" width="62" height="42"></rect>
                <text id="AM" font-family="ArialMT, Arial" font-size="24" font-weight="normal" fill="#000000">
                    <tspan x="13" y="22">AM</tspan>
                </text>
            </g>
            <g id="Group" transform="translate(601.000000, 410.000000)">
                <rect id="Rectangle" stroke="#979797" stroke-width="2" fill="#FFFFFF" x="0" y="0" width="64" height="42"></rect>
                <text id="git" font-family="ArialMT, Arial" font-size="24" font-weight="normal" fill="#000000">
                    <tspan x="19.3261719" y="22">git</tspan>
                </text>
            </g>
            <text id="ssh" font-family="ArialMT, Arial" font-size="16" font-weight="normal" fill="#000000">
                <tspan x="284.050781" y="498">ssh</tspan>
            </text>
            <text id="https" font-family="ArialMT, Arial" font-size="16" font-weight="normal" fill="#000000">
                <tspan x="423.15625" y="161">https</tspan>
            </text>
            <text id="ssh" font-family="ArialMT, Arial" font-size="16" font-weight="normal" fill="#000000">
                <tspan x="390.050781" y="501">ssh</tspan>
            </text>
            <text id="ssh" font-family="ArialMT, Arial" font-size="16" font-weight="normal" fill="#000000">
                <tspan x="570.050781" y="496">ssh</tspan>
            </text>
            <text id="Database-w/Users" font-family="ArialMT, Arial" font-size="16" font-weight="normal" fill="#000000">
                <tspan x="35.2539062" y="615">Database</tspan>
                <tspan x="40.609375" y="632">w/Users</tspan>
            </text>
            <g id="Group" transform="translate(134.000000, 307.000000)">
                <rect id="Rectangle" stroke="#979797" stroke-width="2" fill="#FFFFFF" x="0" y="0" width="139" height="48"></rect>
                <text id="DeGit-CLI" font-family="ArialMT, Arial" font-size="24" font-weight="normal" fill="#000000">
                    <tspan x="16.8183594" y="22">DeGit CLI</tspan>
                </text>
            </g>
            <g id="Group" transform="translate(159.000000, 361.000000)">
                <rect id="Rectangle" stroke="#979797" stroke-width="2" fill="#FFFFFF" x="0" y="0" width="139" height="42"></rect>
                <text id="Dashboard" font-family="ArialMT, Arial" font-size="24" font-weight="normal" fill="#000000">
                    <tspan x="10.7949219" y="22">Dashboard</tspan>
                </text>
            </g>
            <g id="Group" transform="translate(312.000000, 307.000000)">
                <rect id="Rectangle" stroke="#979797" stroke-width="2" fill="#FFFFFF" x="0" y="0" width="139" height="48"></rect>
                <text id="DeGit-CLI" font-family="ArialMT, Arial" font-size="24" font-weight="normal" fill="#000000">
                    <tspan x="16.8183594" y="22">DeGit CLI</tspan>
                </text>
            </g>
            <g id="Group" transform="translate(337.000000, 361.000000)">
                <rect id="Rectangle" stroke="#979797" stroke-width="2" fill="#FFFFFF" x="0" y="0" width="139" height="42"></rect>
                <text id="Dashboard" font-family="ArialMT, Arial" font-size="24" font-weight="normal" fill="#000000">
                    <tspan x="10.7949219" y="22">Dashboard</tspan>
                </text>
            </g>
            <g id="Group" transform="translate(501.000000, 307.000000)">
                <rect id="Rectangle" stroke="#979797" stroke-width="2" fill="#FFFFFF" x="0" y="0" width="139" height="48"></rect>
                <text id="DeGit-CLI" font-family="ArialMT, Arial" font-size="24" font-weight="normal" fill="#000000">
                    <tspan x="16.8183594" y="22">DeGit CLI</tspan>
                </text>
            </g>
            <g id="Group" transform="translate(526.000000, 361.000000)">
                <rect id="Rectangle" stroke="#979797" stroke-width="2" fill="#FFFFFF" x="0" y="0" width="139" height="42"></rect>
                <text id="Dashboard" font-family="ArialMT, Arial" font-size="24" font-weight="normal" fill="#000000">
                    <tspan x="10.7949219" y="22">Dashboard</tspan>
                </text>
            </g>
            <g id="Group" transform="translate(312.000000, 183.000000)">
                <rect id="Rectangle" stroke="#979797" stroke-width="2" fill="#FFFFFF" x="0" y="0" width="160" height="48"></rect>
                <text id="Nginx(s)" font-family="ArialMT, Arial" font-size="24" font-weight="normal" fill="#000000">
                    <tspan x="35.328125" y="22">Nginx(s)</tspan>
                </text>
            </g>
            <path id="Line" d="M428.552786,127.658359 L430.341641,128.552786 L429.894427,129.447214 L409.155,170.925 L414.521981,173.608514 L402,183 L402,167.347524 L407.366,170.03 L428.552786,127.658359 Z" fill="#979797" fill-rule="nonzero"></path>
            <path id="Line" d="M405.11034,589.090098 L405.760121,589.850219 L449.662,641.208 L454.223913,637.309833 L458,652.5 L443.582215,646.406769 L448.142,642.507 L404.239879,591.149781 L403.590098,590.38966 L405.11034,589.090098 Z" fill="#979797" fill-rule="nonzero"></path>
            <path id="Line" d="M404.60402,589.142355 L406.357645,590.10402 L405.876812,590.980833 L378.608,640.705 L383.869343,643.590455 L371,652.5 L371.59397,636.858798 L376.854,639.743 L404.123188,590.019167 L404.60402,589.142355 Z" fill="#979797" fill-rule="nonzero"></path>
            <path id="Line" d="M332.159678,699.59483 L332.782424,700.377254 L363.063,738.423 L367.758528,734.68684 L371,750 L356.804589,743.405282 L361.498,739.668 L331.217576,701.622746 L330.59483,700.840322 L332.159678,699.59483 Z" fill="#979797" fill-rule="nonzero"></path>
            <path id="Line" d="M219.404253,699.717391 L220.343431,700.060822 L341.194,744.252 L343.255523,738.617723 L354,750 L338.447493,751.766215 L340.508,746.131 L219.656569,701.939178 L218.717391,701.595747 L219.404253,699.717391 Z" fill="#979797" fill-rule="nonzero"></path>
            <path id="Line" d="M476.380571,699.637955 L477.362045,701.380571 L476.490737,701.871308 L401.689,744.001 L404.633468,749.228842 L389,750 L397.763155,737.030531 L400.707,742.258 L475.509263,700.128692 L476.380571,699.637955 Z" fill="#979797" fill-rule="nonzero"></path>
            <path id="Line" d="M405.581766,589.210989 L406.289011,591.081766 L405.353622,591.435388 L254.449,648.484 L256.570792,654.097004 L241,652.5 L251.620079,641.001569 L253.741,646.613 L404.646378,589.564612 L405.581766,589.210989 Z" fill="#979797" fill-rule="nonzero"></path>
            <g id="Group-3" transform="translate(70.000000, 565.500000) scale(1, -1) translate(-70.000000, -565.500000) translate(25.000000, 532.000000)" fill="#FFFFFF" stroke="#979797" stroke-width="2">
                <ellipse id="Oval" transform="translate(44.500000, 13.500000) scale(1, -1) translate(-44.500000, -13.500000) " cx="44.5" cy="13.5" rx="44.5" ry="13.5"></ellipse>
                <ellipse id="Oval" transform="translate(44.500000, 26.500000) scale(1, -1) translate(-44.500000, -26.500000) " cx="44.5" cy="26.5" rx="44.5" ry="13.5"></ellipse>
                <ellipse id="Oval" transform="translate(45.500000, 40.500000) scale(1, -1) translate(-45.500000, -40.500000) " cx="45.5" cy="40.5" rx="44.5" ry="13.5"></ellipse>
                <ellipse id="Oval" transform="translate(45.500000, 53.500000) scale(1, -1) translate(-45.500000, -53.500000) " cx="45.5" cy="53.5" rx="44.5" ry="13.5"></ellipse>
            </g>
            <text id="Git-cluster" font-family="ArialMT, Arial" font-size="16" font-weight="normal" fill="#000000">
                <tspan x="463.492188" y="821">Git cluster</tspan>
            </text>
            <text id="Kubernetes-cluster" font-family="ArialMT, Arial" font-size="16" font-weight="normal" fill="#000000">
                <tspan x="543.296875" y="290">Kubernetes cluster</tspan>
            </text>
            <path d="M159,518 L536,518 L536,807 L159,807 L159,518 Z" id="Rectangle" stroke="#979797" stroke-width="2" stroke-dasharray="10"></path>
            <path d="M159,518 L536,518 L536,807 L159,807 L159,518 Z" id="Rectangle" stroke="#979797" stroke-width="2" stroke-dasharray="10"></path>
            <path d="M127,293 L677,293 L677,463 L128,463 L127,293 Z" id="Rectangle" stroke="#979797" stroke-width="2" stroke-dasharray="10"></path>
        </g>
    </g>
</svg>