<?xml version="1.0" encoding="UTF-8"?>
<svg width="710px" height="709px" viewBox="0 0 710 709" version="1.1" xmlns="http://www.w3.org/2000/svg" xmlns:xlink="http://www.w3.org/1999/xlink">
    <title>Group 6</title>
    <g id="Page-1" stroke="none" stroke-width="1" fill="none" fill-rule="evenodd">
        <g id="Group-6" transform="translate(1.000000, 1.000000)">
            <g id="Group" transform="translate(92.000000, 422.000000)">
                <rect id="Rectangle" stroke="#979797" stroke-width="2" fill="#E2E2E2" x="0" y="0" width="62" height="42"></rect>
                <text id="AM" font-family="ArialMT, Arial" font-size="24" font-weight="normal" fill="#000000">
                    <tspan x="13" y="22">AM</tspan>
                </text>
            </g>
            <g id="Group" transform="translate(0.000000, 526.000000)">
                <rect id="Rectangle" stroke="#979797" stroke-width="2" fill="#FFFFFF" x="0" y="0" width="84" height="48"></rect>
                <text id="LDAP" font-family="ArialMT, Arial" font-size="24" font-weight="normal" fill="#000000">
                    <tspan x="10.6523438" y="22">LDAP</tspan>
                </text>
            </g>
            <g id="Group" transform="translate(459.500000, 420.000000)">
                <rect id="Rectangle" stroke="#979797" stroke-width="2" fill="#FFFFFF" x="0" y="0" width="147" height="54"></rect>
                <text id="HAProxy(s)" font-family="ArialMT, Arial" font-size="24" font-weight="normal" fill="#000000">
                    <tspan x="12.1640625" y="22">HAProxy(s)</tspan>
                </text>
            </g>
            <g id="Group" transform="translate(406.500000, 634.000000)">
                <rect id="Rectangle" stroke="#979797" stroke-width="2" fill="#FFFFFF" x="0" y="0" width="129" height="42"></rect>
                <text id="NFS" font-family="ArialMT, Arial" font-size="24" font-weight="normal" fill="#000000">
                    <tspan x="40.5" y="22">NFS</tspan>
                </text>
            </g>
            <g id="Group" transform="translate(290.500000, 536.500000)">
                <rect id="Rectangle" stroke="#979797" stroke-width="2" fill="#FFFFFF" x="0" y="0" width="90" height="48"></rect>
                <text id="git+ssh" font-family="ArialMT, Arial" font-size="24" font-weight="normal" fill="#000000">
                    <tspan x="6.64453125" y="22">git+ssh</tspan>
                </text>
            </g>
            <g id="Group" transform="translate(272.000000, 488.000000)">
                <rect id="Rectangle" stroke="#979797" stroke-width="2" fill="#FFFFFF" x="0" y="0" width="73" height="42"></rect>
                <text id="hooks" font-family="ArialMT, Arial" font-size="24" font-weight="normal" fill="#000000">
                    <tspan x="4.47851562" y="22">hooks</tspan>
                </text>
            </g>
            <g id="Group" transform="translate(546.500000, 536.500000)">
                <rect id="Rectangle" stroke="#979797" stroke-width="2" fill="#FFFFFF" x="0" y="0" width="90" height="48"></rect>
                <text id="git+ssh" font-family="ArialMT, Arial" font-size="24" font-weight="normal" fill="#000000">
                    <tspan x="6.64453125" y="22">git+ssh</tspan>
                </text>
            </g>
            <g id="Group" transform="translate(402.500000, 536.500000)">
                <rect id="Rectangle" stroke="#979797" stroke-width="2" fill="#FFFFFF" x="0" y="0" width="90" height="48"></rect>
                <text id="git+ssh" font-family="ArialMT, Arial" font-size="24" font-weight="normal" fill="#000000">
                    <tspan x="6.64453125" y="22">git+ssh</tspan>
                </text>
            </g>
            <path id="Line" d="M104.862931,469.529945 L106.407555,470.800431 L105.772312,471.572743 L72.665,511.822 L77.2995904,515.634333 L63,522 L66.4872208,506.740928 L71.12,510.551 L104.227688,470.302257 L104.862931,469.529945 Z" fill="#979797" fill-rule="nonzero"></path>
            <path id="Line" d="M105.918459,291.862124 L105.996917,292.859041 L114.898,405.964 L120.879998,405.493945 L115,420 L106.923155,406.592369 L112.904,406.121 L104.003083,293.015959 L103.924624,292.019041 L105.918459,291.862124 Z" fill="#979797" fill-rule="nonzero"></path>
            <path id="Line" d="M182.371855,336.732943 L183.319456,337.052399 L434.052,421.579 L435.969781,415.894404 L447,427 L431.497392,429.160817 L433.414,423.474 L182.680544,338.947601 L181.732943,338.628145 L182.371855,336.732943 Z" fill="#979797" fill-rule="nonzero"></path>
            <path id="Line" d="M123.156174,469.594436 L123.780869,470.375305 L159.035,514.443 L163.720351,510.694971 L167,526 L152.788188,519.440702 L157.472,515.692 L122.219131,471.624695 L121.594436,470.843826 L123.156174,469.594436 Z" fill="#979797" fill-rule="nonzero"></path>
            <path id="Line" d="M154,447 L169.637153,447.69242 L166.719,452.935 L260.486343,505.126232 L261.360111,505.612574 L260.387426,507.360111 L259.513657,506.873768 L165.746,454.682 L162.828356,459.925174 L154,447 Z" fill="#979797" fill-rule="nonzero"></path>
            <path id="Line" d="M650.286874,138.77875 L652.22125,139.286874 L651.967188,140.254062 L583.023,402.712 L588.827184,404.237803 L578.5,416 L575.286553,400.680935 L581.089,402.204 L650.032812,139.745938 L650.286874,138.77875 Z" fill="#979797" fill-rule="nonzero"></path>
            <path id="Line" d="M290.796548,112.600497 L292.399503,113.796548 L291.801477,114.598025 L203.173,233.377 L207.982695,236.965496 L194,244 L196.762014,228.593142 L201.57,232.181 L290.198523,113.401975 L290.796548,112.600497 Z" fill="#979797" fill-rule="nonzero"></path>
            <g id="Group-4" transform="translate(636.000000, 0.000000)">
                <g id="Group-2" transform="translate(7.000000, 0.000000)" stroke="#979797" stroke-width="2">
                    <circle id="Oval" cx="30.125" cy="16.5" r="16.5"></circle>
                    <line x1="30.875" y1="33.2830189" x2="31.125" y2="63" id="Line-2" stroke-linecap="square"></line>
                    <line x1="61.2052752" y1="39.375" x2="0.904816514" y2="39.25" id="Line-2" stroke-linecap="square"></line>
                    <line x1="62.4107143" y1="85.928125" x2="30.9107143" y2="63.2875" id="Line-2" stroke-linecap="square"></line>
                    <line x1="31.4174107" y1="85.928125" x2="0.901785714" y2="63.2875" id="Line-2" stroke-linecap="square" transform="translate(16.125000, 74.500000) scale(-1, 1) translate(-16.125000, -74.500000) "></line>
                </g>
                <text id="Enterprise-User(s)" font-family="ArialMT, Arial" font-size="16" font-weight="normal" fill="#000000">
                    <tspan x="0.0390625" y="103">Enterprise</tspan>
                    <tspan x="10.28125" y="120">User(s)</tspan>
                </text>
            </g>
            <g id="Group" transform="translate(144.000000, 293.000000)">
                <rect id="Rectangle" stroke="#979797" stroke-width="2" fill="#FFFFFF" x="0" y="0" width="64" height="42"></rect>
                <text id="git" font-family="ArialMT, Arial" font-size="24" font-weight="normal" fill="#000000">
                    <tspan x="19.3261719" y="22">git</tspan>
                </text>
            </g>
            <g id="Group" transform="translate(322.000000, 293.000000)">
                <rect id="Rectangle" stroke="#979797" stroke-width="2" fill="#FFFFFF" x="0" y="0" width="64" height="42"></rect>
                <text id="git" font-family="ArialMT, Arial" font-size="24" font-weight="normal" fill="#000000">
                    <tspan x="19.3261719" y="22">git</tspan>
                </text>
            </g>
            <g id="Group" transform="translate(511.000000, 293.000000)">
                <rect id="Rectangle" stroke="#979797" stroke-width="2" fill="#FFFFFF" x="0" y="0" width="64" height="42"></rect>
                <text id="git" font-family="ArialMT, Arial" font-size="24" font-weight="normal" fill="#000000">
                    <tspan x="19.3261719" y="22">git</tspan>
                </text>
            </g>
            <text id="ssh" font-family="ArialMT, Arial" font-size="16" font-weight="normal" fill="#000000">
                <tspan x="248.050781" y="387">ssh</tspan>
            </text>
            <text id="https" font-family="ArialMT, Arial" font-size="16" font-weight="normal" fill="#000000">
                <tspan x="498.15625" y="67">https</tspan>
            </text>
            <text id="https" font-family="ArialMT, Arial" font-size="16" font-weight="normal" fill="#000000">
                <tspan x="226.15625" y="149">https</tspan>
            </text>
            <text id="ssh" font-family="ArialMT, Arial" font-size="16" font-weight="normal" fill="#000000">
                <tspan x="636.050781" y="244">ssh</tspan>
            </text>
            <g id="Group-5" transform="translate(123.000000, 531.000000)">
                <text id="Database-w/Users" font-family="ArialMT, Arial" font-size="16" font-weight="normal" fill="#000000">
                    <tspan x="10.2539062" y="83">Database</tspan>
                    <tspan x="15.609375" y="100">w/Users</tspan>
                </text>
                <g id="Group-3" transform="translate(45.000000, 33.500000) scale(1, -1) translate(-45.000000, -33.500000) " fill="#FFFFFF" stroke="#979797" stroke-width="2">
                    <ellipse id="Oval" transform="translate(44.500000, 13.500000) scale(1, -1) translate(-44.500000, -13.500000) " cx="44.5" cy="13.5" rx="44.5" ry="13.5"></ellipse>
                    <ellipse id="Oval" transform="translate(44.500000, 26.500000) scale(1, -1) translate(-44.500000, -26.500000) " cx="44.5" cy="26.5" rx="44.5" ry="13.5"></ellipse>
                    <ellipse id="Oval" transform="translate(45.500000, 40.500000) scale(1, -1) translate(-45.500000, -40.500000) " cx="45.5" cy="40.5" rx="44.5" ry="13.5"></ellipse>
                    <ellipse id="Oval" transform="translate(45.500000, 53.500000) scale(1, -1) translate(-45.500000, -53.500000) " cx="45.5" cy="53.5" rx="44.5" ry="13.5"></ellipse>
                </g>
            </g>
            <g id="Group" transform="translate(44.000000, 190.000000)">
                <rect id="Rectangle" stroke="#979797" stroke-width="2" fill="#E2E2E2" x="0" y="0" width="139" height="48"></rect>
                <text id="DeGit-CLI" font-family="ArialMT, Arial" font-size="24" font-weight="normal" fill="#000000">
                    <tspan x="16.8183594" y="22">DeGit CLI</tspan>
                </text>
            </g>
            <g id="Group" transform="translate(69.000000, 244.000000)">
                <rect id="Rectangle" stroke="#979797" stroke-width="2" fill="#E2E2E2" x="0" y="0" width="139" height="42"></rect>
                <text id="Dashboard" font-family="ArialMT, Arial" font-size="24" font-weight="normal" fill="#000000">
                    <tspan x="10.7949219" y="22">Dashboard</tspan>
                </text>
            </g>
            <g id="Group" transform="translate(222.000000, 190.000000)">
                <rect id="Rectangle" stroke="#979797" stroke-width="2" fill="#E2E2E2" x="0" y="0" width="139" height="48"></rect>
                <text id="DeGit-CLI" font-family="ArialMT, Arial" font-size="24" font-weight="normal" fill="#000000">
                    <tspan x="16.8183594" y="22">DeGit CLI</tspan>
                </text>
            </g>
            <g id="Group" transform="translate(247.000000, 244.000000)">
                <rect id="Rectangle" stroke="#979797" stroke-width="2" fill="#E2E2E2" x="0" y="0" width="139" height="42"></rect>
                <text id="Dashboard" font-family="ArialMT, Arial" font-size="24" font-weight="normal" fill="#000000">
                    <tspan x="10.7949219" y="22">Dashboard</tspan>
                </text>
            </g>
            <g id="Group" transform="translate(411.000000, 190.000000)">
                <rect id="Rectangle" stroke="#979797" stroke-width="2" fill="#E2E2E2" x="0" y="0" width="139" height="48"></rect>
                <text id="DeGit-CLI" font-family="ArialMT, Arial" font-size="24" font-weight="normal" fill="#000000">
                    <tspan x="16.8183594" y="22">DeGit CLI</tspan>
                </text>
            </g>
            <g id="Group" transform="translate(436.000000, 244.000000)">
                <rect id="Rectangle" stroke="#979797" stroke-width="2" fill="#E2E2E2" x="0" y="0" width="139" height="42"></rect>
                <text id="Dashboard" font-family="ArialMT, Arial" font-size="24" font-weight="normal" fill="#000000">
                    <tspan x="10.7949219" y="22">Dashboard</tspan>
                </text>
            </g>
            <g id="Group" transform="translate(222.000000, 66.000000)">
                <rect id="Rectangle" stroke="#979797" stroke-width="2" fill="#FFFFFF" x="0" y="0" width="160" height="48"></rect>
                <text id="Nginx(s)" font-family="ArialMT, Arial" font-size="24" font-weight="normal" fill="#000000">
                    <tspan x="35.328125" y="22">Nginx(s)</tspan>
                </text>
            </g>
            <path id="Line" d="M625.881937,64.8944739 L626.105526,66.8819365 L625.111795,66.9937313 L399.023,92.428 L399.694802,98.3909924 L385,93 L398.129675,84.478754 L398.8,90.441 L624.888205,65.0062687 L625.881937,64.8944739 Z" fill="#979797" fill-rule="nonzero"></path>
            <path id="Line" d="M520.61034,473.090098 L521.260121,473.850219 L565.162,525.208 L569.723913,521.309833 L573.5,536.5 L559.082215,530.406769 L563.642,526.507 L519.739879,475.149781 L519.090098,474.38966 L520.61034,473.090098 Z" fill="#979797" fill-rule="nonzero"></path>
            <path id="Line" d="M520.10402,473.142355 L521.857645,474.10402 L521.376812,474.980833 L494.108,524.705 L499.369343,527.590455 L486.5,536.5 L487.09397,520.858798 L492.354,523.743 L519.623188,474.019167 L520.10402,473.142355 Z" fill="#979797" fill-rule="nonzero"></path>
            <path id="Line" d="M447.659678,583.59483 L448.282424,584.377254 L478.563,622.423 L483.258528,618.68684 L486.5,634 L472.304589,627.405282 L476.998,623.668 L446.717576,585.622746 L446.09483,584.840322 L447.659678,583.59483 Z" fill="#979797" fill-rule="nonzero"></path>
            <path id="Line" d="M334.904253,583.717391 L335.843431,584.060822 L456.694,628.252 L458.755523,622.617723 L469.5,634 L453.947493,635.766215 L456.008,630.131 L335.156569,585.939178 L334.217391,585.595747 L334.904253,583.717391 Z" fill="#979797" fill-rule="nonzero"></path>
            <path id="Line" d="M591.880571,583.637955 L592.862045,585.380571 L591.990737,585.871308 L517.189,628.001 L520.133468,633.228842 L504.5,634 L513.263155,621.030531 L516.207,626.258 L591.009263,584.128692 L591.880571,583.637955 Z" fill="#979797" fill-rule="nonzero"></path>
            <path id="Line" d="M521.081766,473.210989 L521.789011,475.081766 L520.853622,475.435388 L369.949,532.484 L372.070792,538.097004 L356.5,536.5 L367.120079,525.001569 L369.241,530.613 L520.146378,473.564612 L521.081766,473.210989 Z" fill="#979797" fill-rule="nonzero"></path>
            <text id="Git-cluster" font-family="ArialMT, Arial" font-size="16" font-weight="normal" fill="#000000">
                <tspan x="578.992188" y="705">Git cluster</tspan>
            </text>
            <text id="Kubernetes-cluster" font-family="ArialMT, Arial" font-size="16" font-weight="normal" fill="#000000">
                <tspan x="453.296875" y="176">Kubernetes cluster</tspan>
            </text>
            <path d="M260.5,402 L651.5,402 L651.5,691 L260.5,691 L260.5,402 Z" id="Rectangle" stroke="#979797" stroke-width="2" stroke-dasharray="10"></path>
            <path d="M37,183 L587,183 L587,353 L38,353 L37,183 Z" id="Rectangle" stroke="#979797" stroke-width="2" stroke-dasharray="10"></path>
        </g>
    </g>
</svg>